PathFileType	4	(X/Y/Z)	c:/Users/goper/Files/vsCode/490R/osim_files/C03/C03_fast_05.trc
DataRate	CameraRate	NumFrames	NumMarkers	Units                	OrigDataRate	OrigDataStartFrame	OrigNumFrames
250.00	250.00	4	36	mm	250.0	1261	2521
                Frame#	Time	LPSIS			LASIS			LTH1			LTH2			LTH3			LTH4			LLFE			LMFE			LSH1			LSH2			LSH3			LSH4			LLMAL			LMMAL			LCAL			LMTP5			LTOE			LMTP1			RPSIS			RASIS			RTH1			RTH2			RTH3			RTH4			RLFE			RMFE			RSH1			RSH2			RSH3			RSH4			RLMAL			RMMAL			RCAL			RMTP1			RTOE			RMTP5		
		X1	Y1	Z1	X2	Y2	Z2	X3	Y3	Z3	X4	Y4	Z4	X5	Y5	Z5	X6	Y6	Z6	X7	Y7	Z7	X8	Y8	Z8	X9	Y9	Z9	X10	Y10	Z10	X11	Y11	Z11	X12	Y12	Z12	X13	Y13	Z13	X14	Y14	Z14	X15	Y15	Z15	X16	Y16	Z16	X17	Y17	Z17	X18	Y18	Z18	X19	Y19	Z19	X20	Y20	Z20	X21	Y21	Z21	X22	Y22	Z22	X23	Y23	Z23	X24	Y24	Z24	X25	Y25	Z25	X26	Y26	Z26	X27	Y27	Z27	X28	Y28	Z28	X29	Y29	Z29	X30	Y30	Z30	X31	Y31	Z31	X32	Y32	Z32	X33	Y33	Z33	X34	Y34	Z34	X35	Y35	Z35	X36	Y36	Z36

1261	5.04000	237.64981	1034.66272	309.50848	59.12497	973.03381	327.50214	39.46397	630.37787	381.64819	8.15153	577.05896	370.95163	-27.37861	664.95361	376.65103	-49.99504	607.54358	365.89673	-45.65325	512.82355	358.20062	-47.69510	508.95218	246.06517	-24.30674	322.36594	363.56058	-39.85518	278.83038	359.63657	-82.02397	340.75714	371.00095	-89.75822	293.04614	366.58774	-122.43121	127.56835	339.35684	-136.33080	146.99672	262.41272	-68.23231	67.98359	307.80310	-266.71884	107.80865	353.49692	-286.09219	138.02986	298.37628	-266.05017	115.37017	260.45718	242.18349	1031.00549	198.28185	80.90070	974.80499	125.43063	302.87506	632.02264	133.27863	318.18655	573.59308	149.25551	244.10883	615.20978	111.15532	250.90562	554.50031	121.76169	273.56461	487.49991	143.51521	275.88412	510.36502	253.75371	404.60568	329.96762	147.42365	412.56732	282.41794	153.04243	347.63785	309.38449	135.44412	363.18127	269.56894	141.36009	404.59183	121.64079	174.26097	388.84628	121.64948	252.44820	478.89682	93.03991	208.59042	278.99078	51.47223	245.72318	249.61546	64.07207	205.89706	306.23694	43.60744	140.91501
1262	5.04400	231.38281	1033.18030	309.98920	52.62611	971.33441	327.70267	34.07211	628.07843	382.15344	2.88756	574.68268	371.34467	-33.12734	662.27637	377.14209	-55.46359	604.99902	366.43472	-51.38778	510.78763	358.27402	-52.81399	506.82278	245.99110	-34.59568	320.16989	363.57135	-50.99088	277.12665	359.77588	-91.77497	339.97787	370.99008	-100.82456	292.45950	366.45331	-137.79182	127.58107	339.31097	-150.99405	147.55040	262.34006	-85.59225	65.97955	307.53070	-282.57193	112.17770	353.17102	-300.96353	143.05684	298.08057	-281.41751	120.26151	259.89523	235.75348	1029.83850	198.84688	74.78269	973.85095	125.33122	298.50189	632.23218	133.69510	314.06680	573.90436	149.66298	239.83403	614.99811	111.27254	246.41447	554.06323	121.71552	269.95087	487.84079	143.73235	271.89166	510.33771	253.95755	402.38873	330.92126	147.87662	410.62283	283.42542	153.70958	345.69504	309.94467	135.65115	363.42313	268.12888	143.27719	403.84695	122.40418	174.54593	387.77338	122.49641	252.87576	478.03586	94.00047	208.80888	278.43982	51.80875	246.08603	249.36075	63.88497	205.80844	306.23166	43.65639	140.96475
1263	5.04800	224.70993	1031.46960	310.47852	45.67515	970.28851	327.51044	28.49471	625.70715	382.54346	-2.41034	572.27301	371.63361	-38.74669	659.68347	377.82147	-60.91175	602.35046	366.93762	-57.10392	508.78040	358.41190	-57.90781	504.59290	245.93224	-44.69649	318.07584	363.48923	-62.07114	275.44720	359.78534	-101.41901	339.19238	370.97598	-111.30274	291.91104	366.64078	-152.68352	127.83465	339.73254	-165.15909	148.32634	262.35278	-101.95612	64.82005	307.74310	-298.02374	116.53297	352.99515	-315.15634	148.22081	297.90680	-296.90063	124.72150	259.60352	229.36382	1028.66418	199.44324	68.69820	972.91296	125.20425	294.05875	632.34778	134.15378	309.96817	574.26440	150.27747	235.66985	614.89587	111.32598	242.46774	553.96167	121.76894	267.20126	487.39780	144.02928	267.59274	510.14636	254.13533	400.08414	331.84106	148.21045	408.62833	284.43002	154.21274	343.62036	310.50201	135.90257	361.60275	268.81216	143.51286	403.11508	123.28553	174.62849	386.86465	123.19373	252.94658	477.63644	95.55334	209.05336	278.00522	52.02014	246.17650	249.13042	63.64140	205.86862	306.19095	43.73120	141.00523
1264	5.05200	218.03049	1029.75952	310.99539	38.75644	969.03424	327.45016	23.00916	623.42072	382.87210	-7.69850	569.80847	371.91855	-44.40130	657.04730	378.53995	-66.31280	599.72961	367.48318	-62.73915	506.72675	358.51648	-62.92794	502.33521	245.82208	-54.37667	316.17047	363.55005	-72.86674	273.89194	359.75812	-110.74087	338.53424	370.97058	-121.73613	291.51236	366.72073	-167.00826	128.40219	339.76614	-178.97382	149.21396	262.33603	-118.16866	63.70164	307.79611	-312.71655	121.57940	353.05768	-328.93799	153.25768	297.82141	-311.28433	129.55603	259.24826	223.01956	1027.48486	200.00278	62.33021	971.92700	125.09545	289.41800	632.44232	134.60762	305.72610	574.45209	150.68307	231.28548	614.71558	111.40302	238.51186	553.91565	121.81894	263.39478	487.20740	144.10530	263.17279	510.06442	254.31485	397.63593	332.84998	148.60455	406.62521	285.48709	154.62007	342.12344	310.90027	135.60391	359.60406	269.52057	143.76917	402.35794	124.20484	174.93202	385.90897	124.21981	253.60669	476.75626	96.58939	209.24506	277.45169	52.25911	246.21461	248.83607	63.48962	205.68060	306.14688	43.80054	141.05177
